# xmcd
#
# Track frame offsets: 
#        150
#        24656
#        40560
#        54026
#        69250
#        85988
#        97167
#        111060
#        124154
#        145440
#        162011
#        189877
#
# Disc length: 2856 seconds
#
# Revision: 2
# Processed by: cddbd v1.5.2PL0 Copyright (c) Steve Scherf et al.
# Submitted via: ExactAudioCopy v0.95b4
#
DISCID=940b260c
DTITLE=Various Artist - The Blues
DYEAR=2004
DGENRE=Blues
TTITLE0=Muddy Waters - Mannish Boy
TTITLE1=Taj Mahal - She Caught the Katy
TTITLE2=Robert Johnson - Sweet Home Chicago
TTITLE3=Alberta Hunter - Amtrak Blues
TTITLE4=Johnny Winter - Tired of Tryin'
TTITLE5=Screamin' Jay Hawkins - I Put a Spell on You
TTITLE6=Leadbelly - You Don't Know My Mind
TTITLE7=Van Morrison - Midnight Special
TTITLE8=Stevie Ray Vaughan - Couldn't Stand the Weather
TTITLE9=Keb' Mo' - I'm On Your Side
TTITLE10=Willie Dixon - Back Door Man
TTITLE11=Fabulous Thunderbirds - Feelin' Good
EXTD=Sony Music NJk 81054
EXTT0=
EXTT1=
EXTT2=
EXTT3=
EXTT4=
EXTT5=
EXTT6=
EXTT7=
EXTT8=
EXTT9=
EXTT10=
EXTT11=
PLAYORDER=
